<svg 
 xmlns="http://www.w3.org/2000/svg"
 xmlns:xlink="http://www.w3.org/1999/xlink"
 width="33.5px" height="33.5px">
<path fill-rule="evenodd"  stroke="rgb(96, 96, 96)" stroke-width="1px" stroke-linecap="butt" stroke-linejoin="miter" fill="none"
 d="M0.500,0.500 L32.500,0.500 L32.500,32.500 L0.500,32.500 L0.500,0.500 Z"/>
<path fill-rule="evenodd"  fill="rgb(96, 96, 96)"
 d="M14.609,13.061 C14.609,13.407 14.622,15.097 14.622,15.097 L13.069,15.097 L13.069,17.262 L14.609,17.258 L14.622,24.119 L17.728,24.119 L17.728,17.262 L19.717,17.258 C19.717,17.258 19.868,16.307 19.961,15.097 C19.694,15.097 17.728,15.097 17.728,15.097 C17.728,15.097 17.678,13.597 17.678,13.362 C17.678,13.126 18.011,12.809 18.341,12.809 C18.669,12.809 19.363,12.809 20.006,12.809 C20.006,12.494 20.006,11.408 20.006,10.405 C19.148,10.405 18.172,10.405 17.742,10.405 C14.534,10.405 14.609,12.716 14.609,13.061 Z"/>
</svg>